<svg width="20" height="14" viewBox="0 0 20 14" fill="none" xmlns="http://www.w3.org/2000/svg">
<g clip-path="url(#clip0_3_36)">
<path fill-rule="evenodd" clip-rule="evenodd" d="M7.60796 7.02832C7.44036 7.09917 7.4556 7.14168 7.33371 7.25504C7.24229 7.35423 7.19658 7.38257 7.10516 7.49593C6.7852 7.85018 6.2367 8.37447 5.93197 8.71456C5.87103 8.78541 5.77961 8.8846 5.70343 8.95545C5.59678 9.05464 5.5663 9.09715 5.45965 9.21051C5.36823 9.3097 5.30729 9.35221 5.21587 9.4514C4.92638 9.79148 4.34741 10.3299 4.05792 10.6559L1.95532 12.8522C1.8639 12.9656 1.25445 13.5182 1.26969 13.589C1.26969 13.6882 1.45252 13.7307 1.55918 13.7733C2.12292 14 2.56477 13.9858 3.28087 13.9858H17.1458C17.5267 13.9858 17.6943 13.9716 18.0295 13.9008C18.2733 13.8441 18.5628 13.7591 18.7304 13.6457C18.7304 13.504 18.6999 13.504 18.6085 13.4332C18.4104 13.2773 18.3038 13.1073 18.121 12.9231L17.4658 12.2429C17.3439 12.1012 17.2677 12.0162 17.1458 11.9028L16.4907 11.2227C16.0945 10.7692 15.6374 10.3441 15.2108 9.86233L14.2357 8.87043C14.1138 8.72873 14.0376 8.65787 13.9158 8.53034L12.9559 7.52427C12.5445 7.12751 12.4835 6.90079 12.255 7.12751L11.158 8.03439C11.0209 8.14775 10.9295 8.23277 10.8076 8.31779C10.4114 8.60119 10.3809 8.79957 9.87815 8.72872C9.68008 8.70038 9.55819 8.58702 9.45154 8.48783C9.32965 8.37447 9.23823 8.30362 9.10111 8.20443L8.36977 7.59512C8.23264 7.48176 7.74508 7.07083 7.62319 7.02832H7.60796Z" fill="#FEFEFE"/>
<path fill-rule="evenodd" clip-rule="evenodd" d="M1.92482 0.793369C2.09242 0.949239 2.29049 1.10511 2.45809 1.23264C2.57998 1.31766 2.62569 1.38851 2.73234 1.45936L3.53986 2.09701C3.90553 2.36624 4.49974 2.91887 4.88065 3.20228C4.97207 3.27313 5.06348 3.32981 5.13966 3.41483L6.22144 4.29337C6.32809 4.36422 6.38904 4.44924 6.48045 4.53426C6.57187 4.60511 6.64805 4.66179 6.7547 4.73264L9.43628 6.929C9.5277 7.01402 9.92384 7.32576 10 7.33993C10.1067 7.3541 10.4723 6.99985 10.5485 6.929L14.0681 4.08082C14.1595 4.00997 14.2205 3.93912 14.3119 3.8541C14.4947 3.69823 14.6928 3.58487 14.8604 3.429L17.542 1.23264C17.6334 1.14762 17.74 1.10511 17.8314 1.02009L18.3647 0.566648C18.4714 0.495798 18.578 0.467458 18.5933 0.311587C18.4104 0.184057 18.0295 0.0990369 17.7553 0.0565268C17.2525 -0.0426635 10.7009 0.0140166 10.0305 0.0140166C9.34486 0.0140166 2.77805 -0.0284935 2.27526 0.0565268C2.03148 0.0990369 1.60486 0.198227 1.43726 0.297417C1.42203 0.481628 1.66581 0.566648 1.92482 0.793369Z" fill="#FEFEFE"/>
<path fill-rule="evenodd" clip-rule="evenodd" d="M0.30979 12.6822C0.538334 12.6964 0.492625 12.5972 0.751641 12.3563C0.888767 12.2287 0.980184 12.087 1.11731 11.9737C1.37633 11.7328 1.60487 11.4777 1.84865 11.2085L4.3931 8.54453C4.92637 7.96356 5.70341 7.22672 6.22144 6.64575C6.29763 6.56073 6.57188 6.30567 6.57188 6.24899C6.58711 6.12146 6.4957 6.09312 6.40428 6.03644L4.54546 4.52024C4.2255 4.22267 3.61605 3.76923 3.32656 3.51417C2.74759 3.00405 1.87912 2.35223 1.26967 1.8421C1.17825 1.77125 0.507861 1.17611 0.43168 1.19028C0.218373 1.33198 0.00506592 2.1255 0.00506592 2.53644V11.5202C0.00506592 11.8887 0.172664 12.4696 0.30979 12.6964V12.6822Z" fill="#FEFEFE"/>
<path fill-rule="evenodd" clip-rule="evenodd" d="M13.4282 6.22064C13.4282 6.30566 13.5501 6.37651 13.611 6.44736L14.19 7.05667C14.3423 7.22671 14.449 7.29756 14.5861 7.46761C14.8604 7.79352 15.4241 8.31781 15.7441 8.67206L19.0503 12.1437C19.1265 12.2287 19.1722 12.2571 19.2484 12.3421C19.3246 12.4271 19.3703 12.4555 19.4465 12.5405C19.5226 12.6255 19.5379 12.6822 19.6598 12.7105C19.8731 12.5688 19.995 11.7186 19.995 11.5061V2.49392C19.995 2.22469 19.934 1.9838 19.8731 1.75708C19.8274 1.5587 19.7207 1.2753 19.5684 1.19028C19.4312 1.23279 19.2941 1.40283 19.157 1.50202C18.6999 1.8421 18.0904 2.38056 17.6181 2.74898L14.5556 5.25708C14.4185 5.37044 14.2966 5.45546 14.1747 5.56882C14.0224 5.69635 13.4282 6.10728 13.4282 6.22064Z" fill="#FEFEFE"/>
</g>
<defs>
<clipPath id="clip0_3_36">
<rect width="20" height="14" fill="white"/>
</clipPath>
</defs>
</svg>
