<svg width="20" height="20" viewBox="0 0 20 20" fill="none" xmlns="http://www.w3.org/2000/svg">
<g clip-path="url(#clip0_3_58)">
<path fill-rule="evenodd" clip-rule="evenodd" d="M5.12066 0H14.876C17.6926 0 19.9967 2.30565 19.9967 5.12402V14.8726C19.9967 17.6909 17.6926 19.9966 14.876 19.9966H5.12066C2.30413 19.9966 0 17.6909 0 14.8726V5.12402C0 2.30565 2.30413 0 5.12066 0ZM6.24793 3.17564H13.7521C15.4413 3.17564 16.8264 4.55836 16.8264 6.25204V13.7512C16.8264 15.4415 15.4446 16.8276 13.7521 16.8276H6.24793C4.55868 16.8276 3.17355 15.4448 3.17355 13.7512V6.25204C3.17355 4.56167 4.55537 3.17564 6.24793 3.17564ZM14.5719 4.93547C14.9884 4.93547 15.3289 5.27288 15.3289 5.69299C15.3289 6.10979 14.9917 6.45051 14.5719 6.45051C14.1554 6.45051 13.8149 6.1131 13.8149 5.69299C13.8149 5.27619 14.1521 4.93547 14.5719 4.93547ZM10.0628 6.34466C12.4 6.34466 14.2942 8.24012 14.2942 10.5788C14.2942 12.9176 12.4 14.813 10.0628 14.813C7.72562 14.813 5.8314 12.9176 5.8314 10.5788C5.8314 8.24012 7.72562 6.34466 10.0628 6.34466ZM10.0628 7.55537C11.7322 7.55537 13.0876 8.90833 13.0876 10.5788C13.0876 12.2494 11.7355 13.6023 10.0628 13.6023C8.39339 13.6023 7.04132 12.2461 7.04132 10.5788C7.04132 8.90833 8.39339 7.55537 10.0628 7.55537ZM6.41653 1.80614H13.5835C16.119 1.80614 18.1917 3.88354 18.1917 6.42074V13.5792C18.1917 16.1164 16.1157 18.1938 13.5835 18.1938H6.41653C3.88099 18.1938 1.80496 16.1164 1.80496 13.5792V6.42074C1.80496 3.88354 3.88099 1.80614 6.41653 1.80614Z" fill="#FEFEFE"/>
</g>
<defs>
<clipPath id="clip0_3_58">
<rect width="20" height="20" fill="white"/>
</clipPath>
</defs>
</svg>
