<svg width="20" height="20" viewBox="0 0 20 20" fill="none" xmlns="http://www.w3.org/2000/svg">
<g clip-path="url(#clip0_3_62)">
<path d="M20 16.5802C20 18.4738 18.4741 19.9997 16.5804 19.9997H13.7193V12.3296H16.2943L16.6757 9.33244H13.7193V7.42514C13.7193 6.55323 13.9646 5.96742 15.2043 5.96742H16.7847V3.29721C16.5122 3.25633 15.5722 3.17459 14.4823 3.17459C12.1934 3.17459 10.6403 4.5642 10.6403 7.12542V9.33244H8.05176V12.3296H10.6403V19.9997H3.43323C1.55312 19.9997 0.0136108 18.4738 0.0136108 16.5802V3.41982C0.0136108 1.52614 1.5395 0.000305176 3.43323 0.000305176H16.594C18.4877 0.000305176 20.0136 1.52614 20.0136 3.41982V16.5802H20Z" fill="#FEFEFE"/>
</g>
<defs>
<clipPath id="clip0_3_62">
<rect width="20" height="20" fill="white"/>
</clipPath>
</defs>
</svg>
