<svg width="20" height="20" viewBox="0 0 20 20" fill="none" xmlns="http://www.w3.org/2000/svg">
<path d="M10.0003 0C12.7609 0 15.2618 1.11929 17.0714 2.92879C18.8809 4.73868 20.0002 7.23878 20.0002 10C20.0002 12.7612 18.8809 15.2613 17.0714 17.0712C15.2618 18.8807 12.7612 20 10.0003 20C7.23823 20 4.73883 18.8807 2.92888 17.0712C1.11894 15.2613 0 12.7612 0 10C0 7.23878 1.11894 4.73868 2.92888 2.92879C4.73883 1.11929 7.23823 0 10.0003 0ZM16.5456 16.0999C16.0655 15.9895 15.587 15.8913 15.108 15.8051C14.9267 16.2 14.7273 16.5727 14.5125 16.9194C14.208 17.4106 13.8714 17.8511 13.5063 18.2342C14.5677 17.7817 15.5237 17.1306 16.3278 16.3265C16.4014 16.2522 16.4755 16.1766 16.546 16.0995L16.5456 16.0999ZM14.2468 15.6632C12.9725 15.4715 11.7037 15.3645 10.4405 15.343V18.9367C10.638 18.9267 10.8343 18.911 11.0291 18.8884C12.0906 18.5471 13.0481 17.6886 13.7981 16.4784C13.958 16.2215 14.1076 15.9488 14.2468 15.6628V15.6632ZM9.59844 15.3415C8.31154 15.3576 7.02695 15.4626 5.74887 15.6547C5.88883 15.9442 6.0403 16.2196 6.20212 16.4792C6.95217 17.6893 7.91044 18.5479 8.9711 18.8891C9.17855 18.9129 9.38792 18.9298 9.59844 18.939V15.3415ZM4.88838 15.7978C4.40828 15.8848 3.92972 15.9845 3.45078 16.0957C3.52248 16.1743 3.59764 16.2514 3.67319 16.3269C4.47616 17.1306 5.43213 17.7821 6.49393 18.2346C6.12964 17.8515 5.7922 17.4109 5.48773 16.9197C5.27146 16.5704 5.07014 16.1954 4.88838 15.7978ZM2.84912 15.3779C3.4178 15.2368 3.98839 15.1122 4.5609 15.0048C4.05856 13.6512 3.75256 12.0887 3.7077 10.4218H1.06181C1.14885 12.2773 1.7992 13.9864 2.84874 15.3779H2.84912ZM5.40298 14.8591C6.7961 14.639 8.19497 14.5197 9.59883 14.5021V10.4214H4.55131C4.59618 12.0495 4.90257 13.5646 5.40337 14.8591H5.40298ZM10.4405 14.504C11.8214 14.527 13.2061 14.647 14.5946 14.866C15.0969 13.5703 15.4044 12.053 15.4497 10.4214H10.4409V14.504H10.4405ZM15.437 15.0102C16.0076 15.1164 16.5798 15.2391 17.1523 15.3783C18.2003 13.9856 18.8518 12.2777 18.9381 10.4214H16.2922C16.2484 12.091 15.9417 13.655 15.437 15.0102ZM3.4711 3.88282C3.94928 3.9921 4.42631 4.08988 4.9018 4.17539C5.08049 3.78772 5.27682 3.42229 5.48811 3.08102C5.79258 2.58982 6.13003 2.14924 6.49432 1.76617C5.43251 2.21864 4.47692 2.86974 3.67357 3.67384C3.60493 3.74248 3.53782 3.81188 3.4711 3.8832V3.88282ZM5.76382 4.31727C7.04765 4.51053 8.32688 4.61674 9.59883 4.63668V1.06177C9.38831 1.07098 9.17894 1.08785 8.97148 1.11162C7.91083 1.45289 6.95255 2.31144 6.2025 3.52161C6.04682 3.77277 5.89995 4.0385 5.76382 4.31727ZM10.4409 4.63745C11.7129 4.61943 12.9798 4.51513 14.2422 4.3257C14.1034 4.04387 13.9557 3.77584 13.7985 3.52199C13.0485 2.31182 12.0909 1.45328 11.0295 1.11201C10.8343 1.08938 10.6384 1.07404 10.4409 1.06369V4.63745ZM15.1034 4.18306C15.5808 4.09678 16.0571 3.99824 16.5334 3.88665C16.4651 3.81495 16.3972 3.74363 16.3278 3.67345C15.5241 2.86974 14.5677 2.21826 13.5063 1.76579C13.8714 2.14886 14.208 2.58944 14.5125 3.08064C14.7257 3.42383 14.9232 3.79271 15.103 4.18268L15.1034 4.18306ZM17.1385 4.60447C16.5709 4.74558 16.0015 4.86867 15.4328 4.97565C15.9398 6.33422 16.2484 7.90368 16.2922 9.57936H18.9381C18.8518 7.71579 18.1957 5.99985 17.1385 4.60447ZM14.5896 5.12136C13.2122 5.33878 11.8302 5.45688 10.4405 5.47644V9.57974H15.4493C15.4037 7.94279 15.0954 6.42049 14.5892 5.12175L14.5896 5.12136ZM9.59883 5.47567C8.20763 5.45458 6.81259 5.33456 5.41372 5.11446C4.90678 6.41512 4.59695 7.93934 4.55131 9.57936H9.59883V5.47567ZM4.57049 4.9699C4.0022 4.86445 3.43237 4.74251 2.86216 4.60409C1.80572 5.99985 1.14885 7.71464 1.06219 9.57897H3.70808C3.75295 7.90099 4.0624 6.32961 4.57049 4.96952V4.9699Z" fill="#FEFEFE"/>
</svg>
