<svg width="20" height="20" viewBox="0 0 20 20" fill="none" xmlns="http://www.w3.org/2000/svg">
<path fill-rule="evenodd" clip-rule="evenodd" d="M0 0H16.9257C18.619 0 20 1.38792 20 3.07425V20H3.07425C1.38099 20 0 18.6121 0 16.9257V0ZM9.99306 7.60583C9.99306 7.7238 10.0902 7.68217 10.2221 7.6891C10.4511 7.70992 10.7356 7.78626 10.9299 7.87647C11.6308 8.18182 12.1374 8.79945 12.2831 9.54892C12.3525 9.90285 12.2762 10.0208 12.4011 10.0208H13.8099C13.8792 10.0208 13.8862 10.0139 13.8862 9.94448C13.8862 9.37543 13.7196 8.77863 13.5184 8.36225C13.338 7.99445 13.0396 7.52949 12.7481 7.25885C12.0611 6.6204 11.145 6.12075 10.1388 6.12075C10 6.12075 9.98612 6.10687 9.98612 6.19709V7.61277L9.99306 7.60583ZM9.99306 3.02568C9.97918 3.22693 9.94448 4.48994 10.0139 4.55933C10.0486 4.59403 10.6315 4.61485 10.7425 4.62873C13.2269 4.96877 15.0867 6.91187 15.406 9.36849C15.4545 9.72935 15.3921 10.0278 15.517 10.0278H17.0021C17.0298 8.99375 16.7592 7.8279 16.2942 6.93963C15.288 5.00347 13.6919 3.67106 11.5267 3.17835C11.2075 3.10895 10.3053 2.96322 9.99306 3.03262V3.02568ZM5.82928 9.07009C5.89868 8.966 6.66898 8.21652 6.82165 8.06384C7.04372 7.84178 7.66829 7.28661 7.73768 7.00902C7.81402 6.70368 7.66135 6.40527 7.60583 6.16239C7.54337 5.89868 7.47398 5.64192 7.4254 5.34351C7.3213 4.76752 7.30049 3.74046 7.24497 3.54615C7.17557 3.31714 6.9882 3.12977 6.73838 3.0465C6.49549 2.96322 4.16377 3.00486 3.79597 3.00486C3.49063 3.00486 3.26856 3.15059 3.13671 3.3449C2.95628 3.60861 3.00486 3.82373 2.99792 4.21235C2.99792 4.76058 3.09507 5.4823 3.18529 6.00278C3.73352 9.16031 5.28105 11.728 7.45316 13.678C8.25815 14.3997 8.87578 14.7814 9.76405 15.3227C10.5413 15.7946 11.7071 16.2457 12.5746 16.4955C13.5878 16.787 14.8092 17.0021 16.0444 17.0021C16.4122 17.0021 16.6065 16.9604 16.7939 16.7523C16.9951 16.5232 16.9951 16.3498 16.9951 15.9542C16.9951 15.2949 16.9951 14.6357 16.9951 13.9764C16.9951 13.4976 17.0645 12.8175 16.2457 12.7203C15.9542 12.6856 15.6072 12.6995 15.3019 12.6718C14.7675 12.6162 14.136 12.5052 13.6502 12.3456C13.3588 12.2484 13.102 12.186 12.8175 12.3387C12.644 12.4358 12.4358 12.6856 12.297 12.8175L11.3047 13.8099C10.9022 14.2054 10.9854 14.2124 10.7356 14.0666C9.34768 13.2824 8.50104 12.644 7.41846 11.4296C6.59958 10.5066 6.3914 10.0347 5.82235 9.07009H5.82928Z" fill="#FEFEFE"/>
</svg>
